#!OML:ASF X:\für Bonn\!DataBase\2005_08_10_Bjorn_Final\c3d\bjorn.ASF
:FULLY-SPECIFIED
:DEGREES
124
root 24.1674 17.4248 -0.933344 16.7177 -73.4644 -335.341
lowerback 51.2914 -1.49205 9.19784
upperback 20.117 -0.359978 1.27682
thorax 2.08153 -0.313147 -2.72091
lowerneck 2.59133 -3.60079 6.68667
upperneck -16.4497 -4.88846 -1.54108
head -5.59588 -2.85275 -1.29052
rclavicle 5.08889e-014 -6.36111e-015
rhumerus 69.6454 -3.35413 -66.7844
rradius 13.7145
rwrist -3.67694
rhand -12.2577 9.97535
rfingers 7.12502
rthumb 13.8087 -19.5463
lclavicle 5.08889e-014 -6.36111e-015
lhumerus 60.5921 -9.2378 96.4478
lradius 9.88836
lwrist -53.2581
lhand -24.966 -9.65687
lfingers 7.12502
lthumb 1.54439 20.3173
rfemur -85.9717 -17.615 20.3233
rtibia 61.3939
rfoot -9.64887 14.8321
rtoes 0.0237408
lfemur -82.8018 11.4891 -36.1444
ltibia 59.0309
lfoot -9.30657 -8.46788
ltoes -8.77424
125
root 24.1569 17.3889 -0.919238 17.1573 -73.3733 -335.393
lowerback 51.5633 -1.57914 9.20851
upperback 20.0039 -0.404613 1.21791
thorax 1.92339 -0.329154 -2.76284
lowerneck 2.34201 -3.48821 6.77399
upperneck -16.3362 -4.75947 -1.64489
head -5.51669 -2.78733 -1.35131
rclavicle 8.5875e-014 -5.1684e-014
rhumerus 70.1198 -3.09244 -66.413
rradius 13.8155
rwrist -4.03894
rhand -12.222 9.97175
rfingers 7.12502
rthumb 13.8431 -19.5476
lclavicle 8.5875e-014 -5.1684e-014
lhumerus 60.817 -8.88575 97.286
lradius 9.80148
lwrist -54.4582
lhand -25.143 -9.39455
lfingers 7.12502
lthumb 1.37344 20.5808
rfemur -86.5858 -17.6393 20.3332
rtibia 61.7973
rfoot -9.84418 14.7437
rtoes -0.219948
lfemur -83.4308 11.2966 -36.2406
ltibia 59.4555
lfoot -9.45062 -8.46401
ltoes -8.7398
126
root 24.1461 17.3554 -0.90672 17.5502 -73.3035 -335.42
lowerback 51.8725 -1.63167 9.17343
upperback 19.8671 -0.422297 1.18569
thorax 1.73465 -0.340537 -2.76349
lowerneck 2.14513 -3.37847 6.82315
upperneck -16.2369 -4.63517 -1.76066
head -5.45007 -2.72079 -1.40785
rclavicle 1.30403e-013 4.13472e-014
rhumerus 70.5847 -2.81516 -65.9678
rradius 13.8889
rwrist -4.2988
rhand -12.1329 9.93895
rfingers 7.12502
rthumb 13.9289 -19.5745
lclavicle 1.30403e-013 4.13472e-014
lhumerus 61.0039 -8.52995 98.1595
lradius 9.72878
lwrist -55.627
lhand -25.3734 -9.1119
lfingers 7.12502
lthumb 1.15092 20.8647
rfemur -87.1518 -17.6244 20.2971
rtibia 62.1745
rfoot -10.0167 14.6247
rtoes -0.327455
lfemur -84.0174 11.1131 -36.3104
ltibia 59.8577
lfoot -9.56987 -8.48147
ltoes -8.46193
127
root 24.1343 17.3227 -0.893327 18.095 -73.2246 -335.591
lowerback 52.1607 -1.6965 9.16982
upperback 19.7111 -0.437979 1.14564
thorax 1.52943 -0.348514 -2.78764
lowerneck 2.01004 -3.28217 6.889
upperneck -16.1497 -4.52535 -1.8913
head -5.39902 -2.66087 -1.46932
rclavicle -3.02153e-014 1.19271e-014
rhumerus 71.0061 -2.51965 -65.5503
rradius 13.975
rwrist -4.52678
rhand -12.0602 9.88704
rfingers 7.12502
rthumb 13.999 -19.6216
lclavicle -3.02153e-014 1.19271e-014
lhumerus 61.1748 -8.16058 99.0122
lradius 9.66427
lwrist -56.7016
lhand -25.5751 -8.84647
lfingers 7.12502
lthumb 0.956174 21.1311
rfemur -87.7203 -17.6084 20.3178
rtibia 62.5348
rfoot -10.1639 14.5104
rtoes -0.336662
lfemur -84.6059 10.9196 -36.3187
ltibia 60.2408
lfoot -9.69702 -8.46185
ltoes -8.27146
128
root 24.1231 17.2912 -0.881522 18.6513 -73.14 -335.807
lowerback 52.4743 -1.76556 9.19565
upperback 19.5612 -0.446295 1.09971
thorax 1.33211 -0.350423 -2.83308
lowerneck 1.8578 -3.17789 6.97335
upperneck -16.0644 -4.40145 -2.0038
head -5.34498 -2.59643 -1.52902
rclavicle -4.45278e-014 3.89618e-014
rhumerus 71.4363 -2.27521 -65.1398
rradius 14.0488
rwrist -4.68164
rhand -11.9242 9.86904
rfingers 7.12502
rthumb 14.13 -19.6305
lclavicle -4.45278e-014 3.89618e-014
lhumerus 61.3589 -7.83281 99.8545
lradius 9.61819
lwrist -57.6844
lhand -25.831 -8.58585
lfingers 7.12502
lthumb 0.708933 21.3927
rfemur -88.2388 -17.5814 20.3492
rtibia 62.8709
rfoot -10.3473 14.3743
rtoes -0.678855
lfemur -85.1536 10.7392 -36.3086
ltibia 60.6025
lfoot -9.80379 -8.44512
ltoes -8.17067
129
root 24.1117 17.2632 -0.86934 19.1666 -73.0332 -335.997
lowerback 52.8006 -1.84318 9.21906
upperback 19.39 -0.457928 1.06799
thorax 1.11058 -0.356579 -2.8602
lowerneck 1.78917 -3.09068 7.06615
upperneck -16.023 -4.30195 -2.16332
head -5.32074 -2.54176 -1.60144
rclavicle 3.18055e-014 -2.06736e-014
rhumerus 71.8322 -2.00035 -64.6616
rradius 14.1056
rwrist -4.84309
rhand -11.8201 9.90736
rfingers 7.12502
rthumb 14.2304 -19.5851
lclavicle 3.18055e-014 -2.06736e-014
lhumerus 61.5338 -7.49299 100.716
lradius 9.5553
lwrist -58.5847
lhand -26.0344 -8.3138
lfingers 7.12502
lthumb 0.512526 21.6653
rfemur -88.7135 -17.568 20.3442
rtibia 63.1895
rfoot -10.5384 14.2316
rtoes -0.899809
lfemur -85.6511 10.5234 -36.2592
ltibia 60.9402
lfoot -9.90531 -8.40893
ltoes -7.92053
130
root 24.1007 17.2374 -0.858651 19.7061 -72.9023 -336.256
lowerback 53.1399 -1.94187 9.27304
upperback 19.2253 -0.480867 1.01561
thorax 0.897561 -0.363767 -2.91869
lowerneck 1.7803 -3.00216 7.16616
upperneck -16.0099 -4.18593 -2.26539
head -5.31367 -2.48251 -1.65678
rclavicle 2.8625e-014 2.54444e-014
rhumerus 72.2085 -1.71971 -64.1477
rradius 14.1814
rwrist -5.08439
rhand -11.6985 9.91626
rfingers 7.12502
rthumb 14.3475 -19.568
lclavicle 2.8625e-014 2.54444e-014
lhumerus 61.7223 -7.18206 101.541
lradius 9.4925
lwrist -59.4194
lhand -26.2578 -8.02299
lfingers 7.12502
lthumb 0.296727 21.9565
rfemur -89.1261 -17.5686 20.364
rtibia 63.4929
rfoot -10.7051 14.0863
rtoes -0.920485
lfemur -86.0904 10.3071 -36.1626
ltibia 61.2558
lfoot -10.0213 -8.36065
ltoes -7.59233
131
root 24.0898 17.2109 -0.84697 20.1654 -72.7892 -336.428
lowerback 53.4675 -2.02194 9.28861
upperback 19.0526 -0.498392 0.976315
thorax 0.675641 -0.372816 -2.94827
lowerneck 1.86967 -2.92521 7.28511
upperneck -16.0609 -4.08494 -2.41553
head -5.34492 -2.42916 -1.72753
rclavicle -6.36111e-014 -7.95139e-015
rhumerus 72.5677 -1.44168 -63.7187
rradius 14.2668
rwrist -5.2262
rhand -11.5713 9.96058
rfingers 7.12502
rthumb 14.4701 -19.5149
lclavicle -6.36111e-014 -7.95139e-015
lhumerus 61.8845 -6.8354 102.382
lradius 9.45741
lwrist -60.1117
lhand -26.4837 -7.82997
lfingers 7.12502
lthumb 0.0786045 22.1498
rfemur -89.5257 -17.5426 20.3197
rtibia 63.7791
rfoot -10.8898 13.9187
rtoes -0.967959
lfemur -86.5208 10.0962 -36.0995
ltibia 61.5567
lfoot -10.1383 -8.32239
ltoes -7.61943
132
root 24.0784 17.1869 -0.836491 20.6308 -72.6605 -336.632
lowerback 53.7739 -2.10336 9.31651
upperback 18.8934 -0.515977 0.936031
thorax 0.472511 -0.380297 -2.98517
lowerneck 2.03778 -2.86368 7.38983
upperneck -16.1726 -3.99323 -2.51822
head -5.40767 -2.38299 -1.77925
rclavicle -8.11041e-014 3.97569e-015
rhumerus 72.8569 -1.12748 -63.0349
rradius 14.4493
rwrist -5.65298
rhand -11.4862 9.98019
rfingers 7.12502
rthumb 14.5521 -19.4894
lclavicle -8.11041e-014 3.97569e-015
lhumerus 62.0332 -6.50232 103.206
lradius 9.44989
lwrist -60.7744
lhand -26.6853 -7.67851
lfingers 7.12502
lthumb -0.116137 22.3012
rfemur -89.8962 -17.5385 20.3029
rtibia 64.0545
rfoot -11.0648 13.7875
rtoes -1.1064
lfemur -86.9142 9.88079 -36.0003
ltibia 61.8392
lfoot -10.2278 -8.25505
ltoes -7.32801
133
root 24.0679 17.1645 -0.826036 21.1027 -72.54 -336.845
lowerback 54.0367 -2.16425 9.32792
upperback 18.7673 -0.527717 0.911965
thorax 0.310384 -0.386363 -3.00138
lowerneck 2.16458 -2.80704 7.50489
upperneck -16.259 -3.91643 -2.65691
head -5.45689 -2.3426 -1.84409
rclavicle -8.26944e-014 3.18055e-015
rhumerus 73.1726 -0.816001 -62.2941
rradius 14.664
rwrist -6.15194
rhand -11.3868 9.97917
rfingers 7.12502
rthumb 14.6478 -19.4835
lclavicle -8.26944e-014 3.18055e-015
lhumerus 62.2105 -6.1607 104.038
lradius 9.44929
lwrist -61.3967
lhand -26.9097 -7.54555
lfingers 7.12502
lthumb -0.33283 22.4339
rfemur -90.253 -17.5291 20.293
rtibia 64.3134
rfoot -11.2516 13.6324
rtoes -1.27146
lfemur -87.3046 9.68548 -35.9272
ltibia 62.1076
lfoot -10.3444 -8.21839
ltoes -7.30151
134
root 24.0584 17.1423 -0.815192 21.5611 -72.413 -337.044
lowerback 54.2888 -2.23147 9.33642
upperback 18.6253 -0.543907 0.89993
thorax 0.131672 -0.396674 -3.00169
lowerneck 2.41052 -2.76486 7.55818
upperneck -16.4232 -3.85089 -2.76567
head -5.54932 -2.30623 -1.88697
rclavicle 2.54444e-014 -1.27222e-014
rhumerus 73.4743 -0.495012 -61.5392
rradius 14.8651
rwrist -6.61462
rhand -11.3064 9.99047
rfingers 7.12502
rthumb 14.7253 -19.4665
lclavicle 2.54444e-014 -1.27222e-014
lhumerus 62.337 -5.79528 104.896
lradius 9.4906
lwrist -61.9796
lhand -27.1235 -7.41606
lfingers 7.12502
lthumb -0.53939 22.563
rfemur -90.5986 -17.5158 20.2611
rtibia 64.5561
rfoot -11.4008 13.4702
rtoes -1.23482
lfemur -87.6897 9.47901 -35.8521
ltibia 62.3625
lfoot -10.4405 -8.14487
ltoes -7.33978
135
root 24.0485 17.1218 -0.805449 22.0045 -72.3023 -337.266
lowerback 54.5336 -2.27609 9.341
upperback 18.5205 -0.547422 0.876346
thorax -0.00377995 -0.39877 -3.01836
lowerneck 2.53539 -2.70762 7.66362
upperneck -16.5153 -3.77078 -2.88472
head -5.59914 -2.26489 -1.94483
rclavicle 5.40694e-014 -1.11319e-014
rhumerus 73.7946 -0.228347 -60.8296
rradius 15.0568
rwrist -7.05603
rhand -11.2411 9.9864
rfingers 7.12502
rthumb 14.7882 -19.466
lclavicle 5.40694e-014 -1.11319e-014
lhumerus 62.4894 -5.45835 105.714
lradius 9.56114
lwrist -62.5351
lhand -27.3969 -7.38584
lfingers 7.12502
lthumb -0.803419 22.5924
rfemur -90.9004 -17.4949 20.2414
rtibia 64.7921
rfoot -11.5621 13.309
rtoes -1.40638
lfemur -88.0276 9.299 -35.7634
ltibia 62.6063
lfoot -10.5442 -8.07495
ltoes -7.25885
136
root 24.0387 17.1023 -0.795561 22.427 -72.1746 -337.467
lowerback 54.7529 -2.33516 9.35173
upperback 18.4291 -0.567897 0.84876
thorax -0.122526 -0.406887 -3.0368
lowerneck 2.56946 -2.62961 7.7389
upperneck -16.5055 -3.66745 -2.99234
head -5.59918 -2.20935 -1.99731
rclavicle -4.77083e-015 -2.54444e-014
rhumerus 74.1631 0.000401808 -60.3705
rradius 15.1691
rwrist -7.27538
rhand -11.1824 10.0684
rfingers 7.12502
rthumb 14.8447 -19.3798
lclavicle -4.77083e-015 -2.54444e-014
lhumerus 62.6405 -5.10825 106.52
lradius 9.6609
lwrist -63.1123
lhand -27.7082 -7.41572
lfingers 7.12502
lthumb -1.10412 22.5612
rfemur -91.1924 -17.4772 20.199
rtibia 65.019
rfoot -11.7517 13.1371
rtoes -1.61733
lfemur -88.3587 9.11628 -35.6829
ltibia 62.8362
lfoot -10.6262 -8.03363
ltoes -7.25352
137
root 24.0292 17.0834 -0.785726 22.7614 -72.0366 -337.594
lowerback 54.9829 -2.38959 9.34428
upperback 18.3256 -0.585768 0.850198
thorax -0.255423 -0.41856 -3.01624
lowerneck 2.67168 -2.55798 7.75928
upperneck -16.5494 -3.57178 -3.09367
head -5.62656 -2.15509 -2.03737
rclavicle -3.18055e-014 3.97569e-014
rhumerus 74.5018 0.254794 -59.775
rradius 15.3129
rwrist -7.53354
rhand -11.1587 10.0779
rfingers 7.12502
rthumb 14.8676 -19.3687
lclavicle -3.18055e-014 3.97569e-014
lhumerus 62.7317 -4.73818 107.369
lradius 9.80921
lwrist -63.6808
lhand -28.1077 -7.47015
lfingers 7.12502
lthumb -1.48997 22.5044
rfemur -91.4502 -17.4796 20.1331
rtibia 65.2375
rfoot -11.9106 12.9644
rtoes -1.70984
lfemur -88.6483 8.90268 -35.5843
ltibia 63.0565
lfoot -10.7339 -7.95323
ltoes -7.19376
